# xmcd
#
# Track frame offsets:
#	150
#	13875
#	27375
#	44175
#	56625
#	70050
#	82425
#	96075
#	109425
#	122400
#
# Disc length: 1820 seconds
# Revision: 0
# Processed by: cddbd v1.5.2PL0 Copyright (c) Steve Scherf et al.
# Submitted via: dBpowerAMP V12.0
#
DISCID=93071a0a
DTITLE=NewTown - Old World
DYEAR=2018
DGENRE=Bluegrass
TTITLE0=Fly Away
TTITLE1=Evangeline
TTITLE2=Heart of Stone
TTITLE3=Laura Lee
TTITLE4=Forgotten War
TTITLE5=The Harvest
TTITLE6=Long Hard Road
TTITLE7=Naomi Wise
TTITLE8=Jump In and Drown
TTITLE9=Never Miss the Sun
EXTD=
EXTT0=
EXTT1=
EXTT2=
EXTT3=
EXTT4=
EXTT5=
EXTT6=
EXTT7=
EXTT8=
EXTT9=
PLAYORDER=
